<?xml version="1.0" encoding="utf-8"?>
<svg width="48px" height="48px" viewBox="0 0 48 48" version="1.1" xmlns:xlink="http://www.w3.org/1999/xlink" xmlns="http://www.w3.org/2000/svg">
  <defs>
    <path d="M0 0L48 0L48 48L0 48L0 0Z" id="path_1" />
    <clipPath id="mask_1">
      <use xlink:href="#path_1" />
    </clipPath>
  </defs>
  <g id="Facebook-icon">
    <path d="M0 0L48 0L48 48L0 48L0 0Z" id="Background" fill="none" fill-rule="evenodd" stroke="none" />
    <g clip-path="url(#mask_1)">
      <path d="M22.511 2.97198C19.445 3.12798 16.69 3.72098 14.142 5.48899C7.53902 10.071 4.05802 17.885 3.51702 25.732C3.38802 27.598 3.41802 29.507 3.98902 31.288C4.67402 33.425 6.09802 35.251 7.68302 36.839C10.608 39.77 14.223 42.072 18.225 43.136C23.402 44.512 29.877 44.6 34.36 41.667C39.471 38.322 43.537 32.843 45.055 26.926C45.864 23.773 44.773 17.528 43.326 14.612C41.306 10.541 39.623 8.55598 35.907 6.45298C31.829 4.14598 27.132 3.29199 22.511 2.97198" id="Shape" fill="#4B7BB2" stroke="none" />
      <path d="M27.563 43.609C27.242 42.69 27.416 41.317 27.388 40.335C27.354 39.153 27.336 37.97 27.334 36.787C27.331 35.337 27.352 33.888 27.396 32.439C27.418 31.715 27.46 30.991 27.481 30.267C27.497 29.708 27.434 29.489 28.049 29.464C29.316 29.413 30.593 29.394 31.868 29.388C31.931 29.388 31.998 29.386 32.048 29.349C32.106 29.306 32.126 29.229 32.139 29.158C32.243 28.594 32.203 28.015 32.209 27.442C32.221 26.198 32.454 24.957 32.892 23.794C31.468 23.687 30.036 23.689 28.612 23.798C28.293 23.822 27.915 23.923 27.598 23.895C27.192 23.859 27.211 23.887 27.121 23.458C26.979 22.784 26.992 22.042 26.966 21.356C26.934 20.512 27.036 19.628 27.494 18.917C27.922 18.253 28.624 17.803 29.367 17.536C30.472 17.138 31.715 16.98 32.877 16.995C32.907 16.133 32.943 15.272 32.986 14.411C33.015 13.827 33.337 12.764 32.773 12.402C32.491 12.221 32.045 12.15 31.722 12.072C30.975 11.893 30.204 11.823 29.437 11.837C27.911 11.865 26.398 12.222 24.978 12.773C23.989 13.156 22.996 13.659 22.364 14.511C21.907 15.127 21.675 15.879 21.496 16.625C21.205 17.836 21.033 19.075 20.981 20.319C20.955 20.941 20.959 21.564 20.993 22.186C21.015 22.586 21.272 23.421 20.892 23.724C20.611 23.949 19.718 23.887 19.362 23.921C18.202 24.034 17.036 24.097 15.87 24.108C16.096 25.959 16.322 27.809 16.548 29.66C17.469 29.708 18.391 29.743 19.313 29.766C19.786 29.778 20.533 29.611 20.834 30.052C21.257 30.669 20.875 31.856 20.861 32.547C20.838 33.756 20.824 34.964 20.833 36.173C20.851 38.549 20.888 41.398 21.191 43.755" id="Shape" fill="#D6E5E5" stroke="none" />
      <path d="M21.193 44.254C20.946 44.254 20.73 44.07 20.698 43.817C20.399 41.493 20.355 38.767 20.336 36.175C20.326 34.962 20.341 33.748 20.363 32.534C20.368 32.315 20.404 32.051 20.445 31.769C20.515 31.28 20.613 30.609 20.424 30.331C20.345 30.219 19.931 30.24 19.684 30.252C19.549 30.259 19.422 30.263 19.302 30.263C18.376 30.241 17.449 30.205 16.524 30.157C16.282 30.144 16.084 29.96 16.054 29.719L15.376 24.167C15.358 24.025 15.402 23.884 15.496 23.776C15.59 23.67 15.725 23.607 15.867 23.606C17.011 23.595 18.171 23.534 19.314 23.421C19.418 23.411 19.564 23.407 19.728 23.404C19.949 23.4 20.464 23.39 20.596 23.32C20.638 23.232 20.571 22.787 20.541 22.597C20.519 22.451 20.5 22.317 20.494 22.21C20.459 21.574 20.455 20.93 20.481 20.294C20.535 19.022 20.712 17.746 21.009 16.505C21.188 15.764 21.44 14.913 21.962 14.209C22.707 13.205 23.868 12.663 24.797 12.303C26.387 11.687 27.944 11.361 29.427 11.333C30.269 11.321 31.082 11.402 31.838 11.583L32.018 11.624C32.338 11.694 32.737 11.782 33.042 11.978C33.749 12.432 33.617 13.392 33.53 14.027C33.509 14.176 33.489 14.316 33.483 14.434C33.442 15.292 33.406 16.151 33.376 17.01C33.366 17.28 33.145 17.492 32.876 17.492C32.827 17.493 32.775 17.491 32.726 17.491C31.568 17.491 30.468 17.668 29.537 18.004C29.025 18.188 28.328 18.542 27.914 19.185C27.577 19.709 27.431 20.412 27.466 21.333L27.479 21.773C27.493 22.308 27.507 22.861 27.611 23.35C27.614 23.364 27.617 23.377 27.619 23.389C27.812 23.399 27.999 23.373 28.178 23.346C28.314 23.325 28.449 23.305 28.574 23.295C30.023 23.185 31.489 23.183 32.93 23.291C33.086 23.304 33.229 23.389 33.314 23.521C33.398 23.654 33.416 23.819 33.36 23.966C32.94 25.08 32.72 26.249 32.709 27.442L32.71 27.85C32.714 28.302 32.719 28.769 32.632 29.244C32.612 29.341 32.566 29.583 32.348 29.745C32.159 29.884 31.955 29.884 31.869 29.884C30.398 29.891 29.19 29.915 28.07 29.96C28.037 29.961 28.01 29.963 27.988 29.965C27.986 30.013 27.985 30.069 27.984 30.117L27.98 30.28C27.969 30.67 27.953 31.06 27.935 31.45C27.92 31.785 27.906 32.119 27.896 32.454C27.851 33.881 27.831 35.339 27.833 36.786C27.835 37.965 27.854 39.142 27.888 40.319C27.896 40.606 27.887 40.925 27.878 41.257C27.857 42.014 27.834 42.871 28.034 43.444C28.126 43.705 27.988 43.99 27.727 44.081C27.466 44.174 27.18 44.035 27.09 43.774C26.829 43.029 26.855 42.073 26.878 41.23C26.886 40.918 26.895 40.619 26.887 40.348C26.853 39.162 26.834 37.975 26.832 36.788C26.829 35.33 26.851 33.861 26.895 32.423C26.906 32.084 26.92 31.745 26.935 31.406C26.952 31.022 26.969 30.637 26.979 30.253L26.982 30.107C26.989 29.669 26.999 29.005 28.028 28.964C29.111 28.921 30.274 28.897 31.674 28.889C31.716 28.555 31.712 28.217 31.709 27.864L31.708 27.437C31.719 26.351 31.887 25.283 32.206 24.251C31.026 24.191 29.833 24.207 28.649 24.296C28.546 24.305 28.437 24.321 28.326 24.338C28.088 24.375 27.816 24.415 27.552 24.392C26.897 24.336 26.752 24.136 26.64 23.598C26.51 22.983 26.494 22.383 26.479 21.803L26.466 21.375C26.423 20.24 26.622 19.348 27.074 18.646C27.639 17.768 28.541 17.301 29.198 17.065C30.146 16.723 31.243 16.53 32.394 16.499C32.42 15.795 32.451 15.091 32.486 14.387C32.493 14.243 32.515 14.074 32.54 13.893C32.583 13.581 32.672 12.931 32.503 12.823C32.349 12.723 32.047 12.657 31.804 12.604L31.607 12.559C30.932 12.397 30.21 12.324 29.447 12.336C28.083 12.361 26.64 12.665 25.16 13.237C24.357 13.549 23.359 14.009 22.766 14.807C22.352 15.365 22.145 16.066 21.983 16.741C21.701 17.919 21.532 19.13 21.482 20.339C21.456 20.943 21.46 21.555 21.493 22.158C21.498 22.238 21.514 22.339 21.531 22.449C21.606 22.947 21.721 23.7 21.206 24.114C20.891 24.365 20.381 24.394 19.747 24.406C19.614 24.409 19.497 24.41 19.412 24.419C18.425 24.515 17.427 24.575 16.435 24.599L16.995 29.181C17.771 29.218 18.549 29.246 19.326 29.265C19.422 29.269 19.523 29.262 19.633 29.256C20.117 29.229 20.855 29.193 21.249 29.769C21.658 30.368 21.534 31.225 21.435 31.915C21.401 32.151 21.368 32.372 21.364 32.556C21.342 33.76 21.327 34.964 21.337 36.169C21.356 38.731 21.399 41.422 21.691 43.691C21.726 43.964 21.533 44.215 21.258 44.251C21.236 44.253 21.215 44.254 21.193 44.254L21.193 44.254Z" id="Shape" fill="#010101" stroke="none" />
      <path d="M25.106 44.623C22.858 44.623 20.479 44.31 18.081 43.673C14.196 42.639 10.465 40.413 7.28999 37.231C5.29999 35.235 4.08299 33.401 3.45999 31.457C2.80799 29.423 2.85199 27.309 2.96399 25.695C3.56899 16.935 7.52799 9.40399 13.827 5.03399C16.166 3.41099 18.836 2.60399 22.485 2.41799C22.508 2.41599 22.529 2.41699 22.551 2.41899C28.268 2.81599 32.599 3.94399 36.18 5.96999C39.885 8.06599 41.67 10.027 43.823 14.365C45.324 17.391 46.448 23.731 45.592 27.064C44.063 33.02 39.978 38.654 34.663 42.131C32.147 43.778 28.799 44.623 25.106 44.623L25.106 44.623ZM22.506 3.52799C19.094 3.70599 16.61 4.45199 14.458 5.94499C8.43799 10.122 4.65099 17.349 4.06999 25.77C3.91399 28.022 4.05199 29.671 4.51599 31.118C5.08299 32.887 6.21399 34.581 8.07399 36.446C11.11 39.49 14.67 41.617 18.366 42.6C24.399 44.204 30.265 43.681 34.055 41.203C39.143 37.872 43.054 32.484 44.516 26.788C45.293 23.762 44.236 17.699 42.827 14.857C40.791 10.754 39.11 8.90199 35.632 6.93499C32.207 4.99699 28.036 3.91399 22.506 3.52799L22.506 3.52799Z" id="Shape" fill="#010101" fill-rule="evenodd" stroke="none" />
    </g>
  </g>
</svg>