<?xml version="1.0" encoding="utf-8"?>
<svg width="48px" height="48px" viewBox="0 0 48 48" version="1.1" xmlns:xlink="http://www.w3.org/1999/xlink" xmlns="http://www.w3.org/2000/svg">
  <defs>
    <linearGradient x1="0.14644998" y1="0.14644998" x2="0.85354996" y2="0.85354996" id="gradient_1">
      <stop offset="0%" stop-color="#33BEF0" />
      <stop offset="100%" stop-color="#0A85D9" />
    </linearGradient>
    <path d="M0 0L48 0L48 48L0 48L0 0Z" id="path_1" />
    <clipPath id="mask_1">
      <use xlink:href="#path_1" />
    </clipPath>
  </defs>
  <g id="Telegram-App-icon">
    <path d="M0 0L48 0L48 48L0 48L0 0Z" id="Background" fill="none" fill-rule="evenodd" stroke="none" />
    <g clip-path="url(#mask_1)">
      <path d="M44 24C44 35.045 35.045 44 24 44C12.955 44 4 35.045 4 24C4 12.955 12.955 4 24 4C35.045 4 44 12.955 44 24L44 24Z" id="Shape" fill="url(#gradient_1)" stroke="none" />
      <path d="M10.119 23.466C18.274 19.771 27.852 15.762 29.327 15.182C32.579 13.903 33.997 15.21 33.775 17.295C33.502 19.85 32.208 27.285 31.412 32.612C30.946 35.729 29.258 36.684 27.353 35.475C25.908 34.558 20.94 31.305 19.633 30.193C18.742 29.435 18.121 28.585 18.753 27.719C18.938 27.466 19.411 26.956 19.674 26.702C20.993 25.424 20.815 25.149 19.22 26.29C19.03 26.426 17.928 27.225 17.475 27.527C16.365 28.267 15.344 28.307 13.613 27.719C12.197 27.238 10.837 26.867 9.97898 26.496C8.79398 25.983 8.33998 24.272 10.119 23.466L10.119 23.466Z" id="Shape" fill="#000000" fill-opacity="0.05" stroke="none" />
      <path d="M10.836 23.591C18.408 20.206 27.72 16.327 29.082 15.778C32.346 14.46 33.547 15.242 33.196 17.789C32.87 20.147 31.713 27.443 30.902 32.334C30.424 35.213 29.028 35.847 27.21 34.671C26.071 33.937 21.487 30.917 20.375 30.038C19.515 29.359 18.624 28.575 19.665 27.44C20.013 27.061 21.935 25.206 23.372 23.826C24.205 23.025 23.908 22.63 22.903 23.318C21.06 24.581 18.045 26.58 17.507 26.943C16.482 27.633 15.519 27.799 13.843 27.272C12.522 26.856 11.246 26.453 10.581 26.194C9.09498 25.618 9.07498 24.378 10.836 23.591L10.836 23.591Z" id="Shape" fill="#000000" fill-opacity="0.07" stroke="none" />
      <path d="M11.553 23.717C18.543 20.642 27.588 16.893 28.837 16.374C32.112 15.016 33.117 15.276 32.616 18.284C32.256 20.446 31.218 27.603 30.39 32.058C29.899 34.7 28.797 35.013 27.065 33.87C26.232 33.32 22.027 30.539 21.114 29.886C20.281 29.291 19.132 28.575 20.573 27.165C21.086 26.663 24.447 23.453 27.066 20.955C27.409 20.627 26.978 20.088 26.582 20.351C23.052 22.692 18.158 25.941 17.535 26.364C16.594 27.003 15.69 27.296 14.068 26.83C12.842 26.478 11.645 26.058 11.179 25.898C9.38401 25.282 9.81001 24.484 11.553 23.717L11.553 23.717Z" id="Shape" fill="#FFFFFF" stroke="none" />
    </g>
  </g>
</svg>